# xmcd
#
# Track frame offsets: 
#        150
#        32068
#        46058
#        58132
#        88064
#        106704
#        130231
#        156094
#        170381
#        186934
#        217439
#        245406
#        268515
#        280104
#        295968
#        307915
#
# Disc length: 4294 seconds
#
# Revision: 1
# Processed by: cddbd v1.5.2PL0 Copyright (c) Steve Scherf et al.
# Submitted via: ExactAudioCopyFreeDBPlugin 1.0
#
DISCID=e710c410
DTITLE=群星 - TEST-CD试音极品11CDA
DYEAR=2012
DGENRE=stereo
TTITLE0=江河水
TTITLE1=弹词三六
TTITLE2=喜洋洋
TTITLE3=春江花月夜
TTITLE4=赶花会
TTITLE5=阳关三叠
TTITLE6=高山流水
TTITLE7=苏武牧羊
TTITLE8=锦上添花
TTITLE9=一枝花
TTITLE10=鹧鸪飞
TTITLE11=梅花三弄
TTITLE12=紫竹调
TTITLE13=将军令
TTITLE14=万事如意
TTITLE15=彩云追月
EXTD=
EXTT0=
EXTT1=
EXTT2=
EXTT3=
EXTT4=
EXTT5=
EXTT6=
EXTT7=
EXTT8=
EXTT9=
EXTT10=
EXTT11=
EXTT12=
EXTT13=
EXTT14=
EXTT15=
PLAYORDER=
